<?xml version="1.0" encoding="UTF-8"?> <svg xmlns="http://www.w3.org/2000/svg" width="280" height="33" viewBox="0 0 280 33"><g fill-rule="nonzero" fill="none"><path d="M.298.352C.46.352.596.325.73.325h9.749c1.706 0 3.385.189 5.064.595 1.678.432 3.276 1.109 4.657 2.164 2.437 1.866 3.927 4.3 4.414 7.303.217 1.244.27 2.488.163 3.733a13.904 13.904 0 01-.732 3.624c-1.272 3.625-4.224 6.465-7.907 7.655-1.462.487-2.978.703-4.55.703-.73 0-1.488-.027-2.22-.054-.054 0-.135-.027-.216-.027-.027-.08-.027-.162-.054-.243v-.298-6.41-.514c.108-.027.216-.054.298-.054.514 0 1.029 0 1.516-.027.948-.027 1.868-.163 2.735-.487.217-.081.406-.163.596-.244 1.3-.622 2.139-1.623 2.518-3.03a6.805 6.805 0 00.054-3.38c-.325-1.38-1.137-2.38-2.41-3.003a6.895 6.895 0 00-1.922-.595 12.513 12.513 0 00-2.004-.162H8.205c-.135 0-.244 0-.38.027-.026.081-.053.162-.053.243V25.86c-.163.135-.325.081-.46.081H.676c-.135 0-.298.027-.46-.054 0-.054-.027-.108-.027-.162V.514C.27.487.27.433.298.352zM78.07 25.94c-.055 0-.136.027-.19.027-.812.054-6.364 0-6.689-.027a.51.51 0 01-.054-.216v-.379-9.17c0-.486.027-.973-.08-1.433-.028-.081-.028-.162-.055-.244-.135-.432-.433-.676-.894-.73-.46-.054-.84.135-1.056.568a2.294 2.294 0 00-.243 1.028c-.028.325-.028.622-.028.947V25.913c-.108.027-.162.054-.243.054h-6.445c-.081 0-.163-.027-.27-.027a.79.79 0 01-.055-.243v-.325-10.9c0-1.164.19-2.3.704-3.355.84-1.704 2.085-2.975 3.845-3.733 1.056-.46 2.194-.595 3.331-.486 1.516.135 2.816.73 4.008 1.677.243.189.46.405.704.622.081.08.19.162.298.27l.243-.162c.434-.406.894-.757 1.381-1.11.867-.594 1.815-1.054 2.844-1.243a6.171 6.171 0 011.733-.082c.596.055 1.191.136 1.787.325 2.248.757 3.737 2.272 4.468 4.544.27.839.38 1.704.433 2.597 0 .244.027.46.027.703V25.48c0 .136.028.298-.027.433-.352.081-4.576.108-6.634.054-.081 0-.19-.027-.298-.054V25.4v-9.224c0-.46.027-.946-.081-1.406a1.794 1.794 0 00-.163-.541c-.108-.27-.325-.406-.595-.46-.623-.135-1.11.081-1.327.676a2.56 2.56 0 00-.19.785c-.027.351-.054.703-.054 1.055v9.061c-.081.244-.027.406-.135.595zM188.418 7.574c.406-.054 6.553-.054 6.932 0 0 .08.027.162.027.216v9.549c0 .46-.027.946.081 1.406l.082.325c.135.432.433.649.866.703.433.027.785-.108 1.002-.487.19-.352.27-.703.298-1.109.027-.325.027-.622.027-.947V8.088c0-.163-.027-.325.027-.433l.054-.054h6.662a.53.53 0 01.19.027c.026.081.054.162.054.216v11.253c0 .676-.055 1.38-.217 2.028-.569 2.164-1.869 3.787-3.845 4.842-1.084.595-2.275.785-3.494.73-1.679-.054-3.114-.703-4.386-1.758-.271-.216-.515-.46-.759-.703-.054-.054-.108-.081-.162-.108-.163.054-.244.19-.38.297-.595.541-1.218 1.001-1.922 1.407-1.191.676-2.491 1-3.872.893-1.219-.082-2.356-.406-3.385-1.055-1.517-.974-2.491-2.354-2.952-4.112a10.785 10.785 0 01-.352-2.434v-.568-10.36c0-.162-.027-.325.027-.46l.054-.054h6.662a.53.53 0 01.19.027c.027.081.027.162.054.243v9.522c0 .46 0 .946.08 1.406.028.163.055.325.136.487.109.325.352.514.704.568.569.108 1.002-.108 1.246-.649.108-.27.19-.54.217-.838.027-.38.027-.73.027-1.11V8.332c0-.406.027-.568.027-.757z" fill="#004990"></path><path d="M122.128 26.292c-.054-.379-.054-7.195-.027-7.682.054.027.135.054.162.081.19.108.38.243.569.325.73.324 1.462.297 2.139-.082 1.056-.568 1.733-1.785 1.381-3.137-.244-.974-1.191-1.786-2.193-1.92a2.769 2.769 0 00-1.246.026 2.2 2.2 0 00-1.3.947c-.19.298-.325.622-.406.974a4.354 4.354 0 00-.163 1.19c0 .352-.027.676-.027 1.028v14.823c-.135.108-.27.08-.379.08h-6.634c0-.107-.027-.215-.027-.297V30.81 17.203c0-1.244.162-2.461.514-3.651.867-2.868 2.708-4.842 5.443-5.951 1.544-.65 3.169-.866 4.847-.676 1.734.162 3.331.73 4.74 1.758 1.651 1.217 2.897 2.732 3.574 4.706.46 1.353.596 2.732.487 4.139a8.919 8.919 0 01-1.814 4.815c-1.11 1.487-2.491 2.677-4.252 3.408-1.354.568-2.762.757-4.224.649-.379-.054-.758-.081-1.164-.108z" fill="#000"></path><path d="M264.51 7.033v7.384c0 .054 0 .108-.026.19-.136-.082-.244-.136-.352-.19a2.869 2.869 0 00-1.084-.378c-.487-.055-.947 0-1.354.216-.974.487-1.516 1.271-1.57 2.38-.109 1.623 1.354 2.84 2.708 2.813.27 0 .541-.027.812-.08a2.132 2.132 0 001.381-.975c.19-.297.325-.622.406-.973.109-.406.163-.839.19-1.272V15.12.893.379c.108-.027.162-.054.244-.054H272.039c.162 0 .325 0 .514.027.027.108.054.189.054.243V15.96c0 1.136-.108 2.272-.406 3.381-.84 3.057-2.735 5.167-5.686 6.33a9.515 9.515 0 01-3.792.676c-1.462-.027-2.87-.27-4.17-.92-2.491-1.217-4.251-3.137-5.118-5.788-.433-1.299-.541-2.624-.406-3.977.352-3.57 2.79-6.816 6.12-8.141a9.18 9.18 0 012.545-.595c.84-.082 1.652 0 2.465.054.162-.027.243.027.352.054zM102.062 19.07c0 .108.027.162.027.216.054 1.677.027 6.519-.054 6.925-.136.027-.298.08-.46.08-2.004.19-3.954-.053-5.741-1.027-2.681-1.434-4.387-3.598-4.956-6.6-.379-2.002-.244-3.95.542-5.843.948-2.326 3.358-4.923 6.634-5.68a11.11 11.11 0 013.277-.243c.84.054 1.706.162 2.518.405 3.141.947 5.118 3.003 6.012 6.14.298 1.028.406 2.083.406 3.165V25.86c-.135.135-.244.108-.38.108h-6.146c-.136 0-.298.027-.46-.08v-.46-7.9c0-.486-.028-.946-.163-1.433a2.626 2.626 0 00-.433-.974c-.542-.811-1.3-1.163-2.248-1.109-1.462.055-2.437 1.245-2.6 2.219-.162 1 .055 1.893.813 2.596.406.379.92.595 1.49.622.595.054 1.137-.027 1.678-.297a1.26 1.26 0 01.244-.081zM217.826 26.346c-2.356.027-4.333-.595-6.066-1.948-1.49-1.136-2.627-2.542-3.33-4.3-.407-1.055-.596-2.164-.623-3.3-.028-1.299.162-2.543.622-3.76 1.084-2.813 3.656-5.113 6.635-5.87a10.715 10.715 0 013.466-.325c2.302.163 4.279 1.028 5.93 2.624 1.084 1.028 1.923 2.218 2.465 3.598.325.838.487 1.704.568 2.596.109 1.326 0 2.597-.406 3.869-.487 1.595-1.408 2.948-2.6 4.084-1.3 1.244-2.816 2.083-4.576 2.461-.758.217-1.49.298-2.085.27zm-2.898-9.846c0 1.082.407 1.866 1.192 2.461.84.65 2.03.677 2.952.109a2.913 2.913 0 001.002-3.895 2.706 2.706 0 00-4.577-.298c-.406.514-.596 1.082-.569 1.623z" fill="#004990"></path><path d="M174.824 25.967c-.38.054-4.116.081-6.662.027-.08 0-.19 0-.297-.027 0-.135-.027-.27-.027-.378v-2.597-7.358c0-.297-.028-.568-.082-.865-.135-.65-.514-.974-1.164-1.001-.758-.027-1.192.298-1.354 1-.027.136-.054.271-.054.407V25.94c-.163.081-.325.054-.46.054H158.44c-.081 0-.162-.027-.244-.027-.054-.162-.027-.324-.027-.46v-4.003-6.14c0-1.38.271-2.705.92-3.922 1.03-1.948 2.546-3.381 4.631-4.166a7.947 7.947 0 012.492-.46c1.029-.027 2.058.054 3.06.38 2.626.865 4.387 2.623 5.199 5.274.244.811.38 1.65.433 2.515.027.514.054 1.055.054 1.57v8.925c-.08.163-.054.352-.135.487zM155.191 17.717c-.108.027-.135.027-.19.027H144.55c-.433-.73-.379-2.461.054-3.327.109 0 .217-.027.353-.027h2.762c.135 0 .27.027.406-.027-.027-1.028-.84-1.893-1.869-2.029-1.137-.135-2.004.27-2.653 1.218-.407.595-.623 1.271-.705 2.001a7.059 7.059 0 00.136 2.38c.135.569.379 1.083.758 1.542.38.46.867.785 1.49.893a2.189 2.189 0 001.489-.216c.27-.136.487-.325.731-.514.108-.081.19-.163.27-.244.055.054.11.081.136.108 1.3 1.542 2.573 3.084 3.872 4.653-.08.162-.216.243-.352.325-1.408 1.027-2.951 1.677-4.684 1.866-1.923.19-3.818 0-5.579-.893-2.762-1.38-4.576-3.543-5.253-6.573-.27-1.163-.298-2.353-.135-3.57a9.718 9.718 0 015.713-7.655 9.404 9.404 0 013.412-.812c1.165-.054 2.302 0 3.44.325 1.001.27 1.95.676 2.789 1.298 1.868 1.326 3.195 3.057 3.818 5.302a9.255 9.255 0 01.325 3.219c-.054.216-.054.46-.082.73z" fill="#000"></path><path d="M39.373 14.39c0-.027.027-.054.027-.081-.108-1.109-.947-1.893-2.058-2.002-1.11-.08-1.95.352-2.545 1.272a3.985 3.985 0 00-.65 1.704c-.135.92-.108 1.84.135 2.732.163.568.407 1.109.813 1.542.514.595 1.191.865 1.977.838.514-.027.947-.216 1.354-.514.19-.135.379-.324.595-.487.054.054.136.108.19.163 1.462 1.677 3.574 4.246 3.764 4.598a1.751 1.751 0 00-.244.216c-1.273.92-2.68 1.57-4.224 1.813-1.03.162-2.085.162-3.114.054-1.03-.136-2.031-.379-2.952-.839-2.735-1.38-4.55-3.543-5.226-6.546a9.076 9.076 0 01-.217-1.92 10.806 10.806 0 01.38-3.22c.54-1.865 1.624-3.38 3.086-4.624 1.327-1.137 2.87-1.867 4.604-2.137 1.895-.298 3.737-.163 5.551.54 2.464.974 5.118 3.463 5.74 7.033.163.893.19 1.813.136 2.705 0 .136-.027.27-.054.406-.108.027-.19.027-.298.054H35.88c-.406-.595-.379-2.434.054-3.219.109-.08.271-.054.406-.054h2.681a.414.414 0 00.352-.027zM242.928.379c.407-.054 5.037-.081 6.608-.054.081 0 .19.027.298.027.027.08.027.162.054.243V25.4c0 .162.027.352-.054.541-.082 0-.163.027-.244.027-1.246.054-6.282.027-6.634-.027a.51.51 0 01-.055-.216v-.325V.92c0-.162 0-.351.027-.54zM59.602 7.087c.054.352.054 6.979 0 7.33-.109.081-.217-.027-.298-.054a2.268 2.268 0 00-1.11-.216c-.623.027-1.084.297-1.382.838-.216.379-.325.785-.379 1.217-.027.433-.054.839-.054 1.272v7.98c0 .162.027.324-.027.486-.054.027-.081.054-.108.054h-6.662c-.027 0-.081-.027-.135-.054-.054-.135-.027-.297-.027-.433v-8.845-1.325c.027-1.298.243-2.57.758-3.76.758-1.785 2.004-3.165 3.791-3.976.758-.352 1.57-.541 2.41-.65 1.056-.135 2.085-.053 3.114.109 0-.027.027 0 .109.027zM240.735 7.087a.528.528 0 01.027.19v6.978c0 .054-.027.108-.027.162-.135.054-.217-.027-.325-.054a2.268 2.268 0 00-1.11-.216 1.584 1.584 0 00-1.327.784c-.19.325-.325.676-.38 1.028a6.323 6.323 0 00-.08 1.028v8.926c-.082.027-.163.054-.244.054h-6.228c-.163 0-.325.027-.515-.054 0-.108-.027-.243-.027-.352V15.445c0-1.298.217-2.543.677-3.733.704-1.73 1.814-3.083 3.493-3.949.867-.46 1.787-.703 2.735-.838 1.056-.136 2.085-.055 3.114.108.082 0 .136.027.217.054z" fill="#004990"></path><path d="M279.377 3.381c-.108-.433-.081-.865-.108-1.271-.027-.406-.054-.812-.081-1.271-.136.162-.136.351-.19.513-.054.163-.108.352-.162.514a4.17 4.17 0 00-.136.46c-.054.163-.108.352-.162.514-.054.162-.109.325-.163.514-.216.054-.406.027-.596.027-.027-.081-.08-.162-.108-.27-.19-.65-.379-1.326-.568-1.975-.028-.081-.028-.19-.136-.27-.027.838-.108 1.677-.135 2.488-.217.081-.38.054-.596.027.054-1.028.135-2.056.217-3.056.297-.082.595-.055.92-.027.271.73.515 1.433.731 2.218.136-.19.136-.352.19-.541.054-.19.135-.38.19-.595a4.29 4.29 0 01.19-.541c.053-.19.135-.352.189-.541h.84a.96.96 0 01.053.27c.054.866.136 1.758.19 2.624v.162c-.19.081-.38.054-.569.027zM275.965.27v.46c-.325.109-.65-.027-.948.081-.054.217-.027.433-.027.65v1.271c0 .19.027.406-.027.622a.924.924 0 01-.541 0c0-.108-.027-.216-.027-.324V1.217c0-.135 0-.27-.027-.406-.298-.108-.623 0-.921-.08a.67.67 0 010-.46c.27-.082.541-.028.812-.028h.867c.27.027.541.027.84.027z" fill="#000"></path></g></svg> 